<?xml version="1.0" encoding="UTF-8" standalone="no"?>
<!DOCTYPE svg PUBLIC "-//W3C//DTD SVG 1.1//EN"
 "http://www.w3.org/Graphics/SVG/1.1/DTD/svg11.dtd">
<!-- Generated by graphviz version 2.40.1 (20161225.0304)
 -->
<!-- Title: %3 Pages: 1 -->
<svg width="2975pt" height="548pt"
 viewBox="0.00 0.00 2975.26 548.00" xmlns="http://www.w3.org/2000/svg" xmlns:xlink="http://www.w3.org/1999/xlink">
<g id="graph0" class="graph" transform="scale(1 1) rotate(0) translate(4 544)">
<title>%3</title>
<polygon fill="#ffffff" stroke="transparent" points="-4,4 -4,-544 2971.2554,-544 2971.2554,4 -4,4"/>
<!-- [root] aws_autoscaling_group.terraform_esc_cluster_instances -->
<g id="node1" class="node">
<title>[root] aws_autoscaling_group.terraform_esc_cluster_instances</title>
<polygon fill="none" stroke="#000000" points="1506.7134,-468 1174.5942,-468 1174.5942,-432 1506.7134,-432 1506.7134,-468"/>
<text text-anchor="middle" x="1340.6538" y="-445.8" font-family="Times,serif" font-size="14.00" fill="#000000">aws_autoscaling_group.terraform_esc_cluster_instances</text>
</g>
<!-- [root] aws_elb.terraform_elb_ecs -->
<g id="node5" class="node">
<title>[root] aws_elb.terraform_elb_ecs</title>
<polygon fill="none" stroke="#000000" points="2106.3649,-324 1938.9427,-324 1938.9427,-288 2106.3649,-288 2106.3649,-324"/>
<text text-anchor="middle" x="2022.6538" y="-301.8" font-family="Times,serif" font-size="14.00" fill="#000000">aws_elb.terraform_elb_ecs</text>
</g>
<!-- [root] aws_autoscaling_group.terraform_esc_cluster_instances&#45;&gt;[root] aws_elb.terraform_elb_ecs -->
<g id="edge1" class="edge">
<title>[root] aws_autoscaling_group.terraform_esc_cluster_instances&#45;&gt;[root] aws_elb.terraform_elb_ecs</title>
<path fill="none" stroke="#000000" d="M1472.0239,-431.9513C1534.5626,-422.5943 1610.2428,-410.1593 1677.6538,-396 1772.9229,-375.9893 1881.3395,-346.5996 1950.7968,-326.9061"/>
<polygon fill="#000000" stroke="#000000" points="1952.0949,-330.1758 1960.7556,-324.0731 1950.1796,-323.4429 1952.0949,-330.1758"/>
</g>
<!-- [root] aws_launch_configuration.terraform_ecs_instance -->
<g id="node12" class="node">
<title>[root] aws_launch_configuration.terraform_ecs_instance</title>
<polygon fill="none" stroke="#000000" points="1304.4996,-396 1006.8081,-396 1006.8081,-360 1304.4996,-360 1304.4996,-396"/>
<text text-anchor="middle" x="1155.6538" y="-373.8" font-family="Times,serif" font-size="14.00" fill="#000000">aws_launch_configuration.terraform_ecs_instance</text>
</g>
<!-- [root] aws_autoscaling_group.terraform_esc_cluster_instances&#45;&gt;[root] aws_launch_configuration.terraform_ecs_instance -->
<g id="edge2" class="edge">
<title>[root] aws_autoscaling_group.terraform_esc_cluster_instances&#45;&gt;[root] aws_launch_configuration.terraform_ecs_instance</title>
<path fill="none" stroke="#000000" d="M1293.9705,-431.8314C1268.8979,-422.0734 1237.8171,-409.977 1211.4729,-399.7242"/>
<polygon fill="#000000" stroke="#000000" points="1212.59,-396.4033 1202.0014,-396.038 1210.0511,-402.9266 1212.59,-396.4033"/>
</g>
<!-- [root] aws_ecs_cluster.terraform_new_cluster -->
<g id="node2" class="node">
<title>[root] aws_ecs_cluster.terraform_new_cluster</title>
<polygon fill="none" stroke="#000000" points="1359.3512,-252 1121.9565,-252 1121.9565,-216 1359.3512,-216 1359.3512,-252"/>
<text text-anchor="middle" x="1240.6538" y="-229.8" font-family="Times,serif" font-size="14.00" fill="#000000">aws_ecs_cluster.terraform_new_cluster</text>
</g>
<!-- [root] provider.aws -->
<g id="node23" class="node">
<title>[root] provider.aws</title>
<polygon fill="none" stroke="#000000" points="1603.6538,-108 1525.0455,-90 1603.6538,-72 1682.2621,-90 1603.6538,-108"/>
<text text-anchor="middle" x="1603.6538" y="-85.8" font-family="Times,serif" font-size="14.00" fill="#000000">provider.aws</text>
</g>
<!-- [root] aws_ecs_cluster.terraform_new_cluster&#45;&gt;[root] provider.aws -->
<g id="edge3" class="edge">
<title>[root] aws_ecs_cluster.terraform_new_cluster&#45;&gt;[root] provider.aws</title>
<path fill="none" stroke="#000000" d="M1286.2605,-215.9081C1358.4945,-187.2533 1497.9217,-131.9433 1565.3221,-105.206"/>
<polygon fill="#000000" stroke="#000000" points="1566.7225,-108.4158 1574.7273,-101.475 1564.1413,-101.9091 1566.7225,-108.4158"/>
</g>
<!-- [root] aws_ecs_service.terraform_new_ecs_service -->
<g id="node3" class="node">
<title>[root] aws_ecs_service.terraform_new_ecs_service</title>
<polygon fill="none" stroke="#000000" points="1668.6416,-396 1400.6661,-396 1400.6661,-360 1668.6416,-360 1668.6416,-396"/>
<text text-anchor="middle" x="1534.6538" y="-373.8" font-family="Times,serif" font-size="14.00" fill="#000000">aws_ecs_service.terraform_new_ecs_service</text>
</g>
<!-- [root] aws_ecs_service.terraform_new_ecs_service&#45;&gt;[root] aws_ecs_cluster.terraform_new_cluster -->
<g id="edge4" class="edge">
<title>[root] aws_ecs_service.terraform_new_ecs_service&#45;&gt;[root] aws_ecs_cluster.terraform_new_cluster</title>
<path fill="none" stroke="#000000" d="M1400.8025,-362.8865C1346.4289,-354.272 1291.7021,-341.6119 1271.6538,-324 1253.9732,-308.468 1246.3704,-282.3664 1243.1046,-262.2607"/>
<polygon fill="#000000" stroke="#000000" points="1246.5388,-261.5383 1241.7306,-252.0974 1239.6019,-262.4762 1246.5388,-261.5383"/>
</g>
<!-- [root] aws_ecs_service.terraform_new_ecs_service&#45;&gt;[root] aws_elb.terraform_elb_ecs -->
<g id="edge5" class="edge">
<title>[root] aws_ecs_service.terraform_new_ecs_service&#45;&gt;[root] aws_elb.terraform_elb_ecs</title>
<path fill="none" stroke="#000000" d="M1656.8523,-359.9707C1741.0168,-347.553 1851.1856,-331.2986 1928.5427,-319.8852"/>
<polygon fill="#000000" stroke="#000000" points="1929.3765,-323.3002 1938.7585,-318.378 1928.3547,-316.3752 1929.3765,-323.3002"/>
</g>
<!-- [root] aws_iam_role.terraform_new_role -->
<g id="node8" class="node">
<title>[root] aws_iam_role.terraform_new_role</title>
<polygon fill="none" stroke="#000000" points="285.6304,-252 75.6772,-252 75.6772,-216 285.6304,-216 285.6304,-252"/>
<text text-anchor="middle" x="180.6538" y="-229.8" font-family="Times,serif" font-size="14.00" fill="#000000">aws_iam_role.terraform_new_role</text>
</g>
<!-- [root] aws_ecs_service.terraform_new_ecs_service&#45;&gt;[root] aws_iam_role.terraform_new_role -->
<g id="edge6" class="edge">
<title>[root] aws_ecs_service.terraform_new_ecs_service&#45;&gt;[root] aws_iam_role.terraform_new_role</title>
<path fill="none" stroke="#000000" d="M1400.8055,-366.4985C1276.5387,-355.1208 1106.481,-337.5008 1077.6538,-324 1056.5855,-314.1329 1061.0515,-297.1309 1039.6538,-288 965.8114,-256.4896 413.2415,-260.1991 295.8531,-251.8839"/>
<polygon fill="#000000" stroke="#000000" points="296.1416,-248.3959 285.8821,-251.0401 295.5513,-255.371 296.1416,-248.3959"/>
</g>
<!-- [root] data.aws_ecs_task_definition.terraform_new_task -->
<g id="node20" class="node">
<title>[root] data.aws_ecs_task_definition.terraform_new_task</title>
<polygon fill="none" stroke="#000000" points="1736.5718,-324 1440.7358,-324 1440.7358,-288 1736.5718,-288 1736.5718,-324"/>
<text text-anchor="middle" x="1588.6538" y="-301.8" font-family="Times,serif" font-size="14.00" fill="#000000">data.aws_ecs_task_definition.terraform_new_task</text>
</g>
<!-- [root] aws_ecs_service.terraform_new_ecs_service&#45;&gt;[root] data.aws_ecs_task_definition.terraform_new_task -->
<g id="edge7" class="edge">
<title>[root] aws_ecs_service.terraform_new_ecs_service&#45;&gt;[root] data.aws_ecs_task_definition.terraform_new_task</title>
<path fill="none" stroke="#000000" d="M1548.2803,-359.8314C1554.4998,-351.5386 1561.986,-341.557 1568.8138,-332.4533"/>
<polygon fill="#000000" stroke="#000000" points="1571.6438,-334.5133 1574.8439,-324.4133 1566.0438,-330.3133 1571.6438,-334.5133"/>
</g>
<!-- [root] aws_ecs_task_definition.terraform_new_task -->
<g id="node4" class="node">
<title>[root] aws_ecs_task_definition.terraform_new_task</title>
<polygon fill="none" stroke="#000000" points="1851.2544,-252 1582.0532,-252 1582.0532,-216 1851.2544,-216 1851.2544,-252"/>
<text text-anchor="middle" x="1716.6538" y="-229.8" font-family="Times,serif" font-size="14.00" fill="#000000">aws_ecs_task_definition.terraform_new_task</text>
</g>
<!-- [root] aws_ecs_task_definition.terraform_new_task&#45;&gt;[root] provider.aws -->
<g id="edge8" class="edge">
<title>[root] aws_ecs_task_definition.terraform_new_task&#45;&gt;[root] provider.aws</title>
<path fill="none" stroke="#000000" d="M1702.3423,-215.7623C1681.9981,-189.837 1644.6992,-142.3056 1622.2403,-113.6855"/>
<polygon fill="#000000" stroke="#000000" points="1624.7088,-111.1617 1615.782,-105.4554 1619.202,-115.4831 1624.7088,-111.1617"/>
</g>
<!-- [root] aws_security_group.terraform_new_security_group -->
<g id="node16" class="node">
<title>[root] aws_security_group.terraform_new_security_group</title>
<polygon fill="none" stroke="#000000" points="2176.0652,-252 1869.2424,-252 1869.2424,-216 2176.0652,-216 2176.0652,-252"/>
<text text-anchor="middle" x="2022.6538" y="-229.8" font-family="Times,serif" font-size="14.00" fill="#000000">aws_security_group.terraform_new_security_group</text>
</g>
<!-- [root] aws_elb.terraform_elb_ecs&#45;&gt;[root] aws_security_group.terraform_new_security_group -->
<g id="edge9" class="edge">
<title>[root] aws_elb.terraform_elb_ecs&#45;&gt;[root] aws_security_group.terraform_new_security_group</title>
<path fill="none" stroke="#000000" d="M2022.6538,-287.8314C2022.6538,-280.131 2022.6538,-270.9743 2022.6538,-262.4166"/>
<polygon fill="#000000" stroke="#000000" points="2026.1539,-262.4132 2022.6538,-252.4133 2019.1539,-262.4133 2026.1539,-262.4132"/>
</g>
<!-- [root] aws_subnet.terraform_new_subnet -->
<g id="node17" class="node">
<title>[root] aws_subnet.terraform_new_subnet</title>
<polygon fill="none" stroke="#000000" points="2405.2099,-252 2194.0977,-252 2194.0977,-216 2405.2099,-216 2405.2099,-252"/>
<text text-anchor="middle" x="2299.6538" y="-229.8" font-family="Times,serif" font-size="14.00" fill="#000000">aws_subnet.terraform_new_subnet</text>
</g>
<!-- [root] aws_elb.terraform_elb_ecs&#45;&gt;[root] aws_subnet.terraform_new_subnet -->
<g id="edge10" class="edge">
<title>[root] aws_elb.terraform_elb_ecs&#45;&gt;[root] aws_subnet.terraform_new_subnet</title>
<path fill="none" stroke="#000000" d="M2092.1951,-287.9243C2131.1327,-277.8033 2179.8333,-265.1447 2220.2623,-254.6361"/>
<polygon fill="#000000" stroke="#000000" points="2221.2861,-257.9863 2230.0839,-252.0831 2219.525,-251.2115 2221.2861,-257.9863"/>
</g>
<!-- [root] aws_iam_instance_profile.terraform_iam_instance_profile -->
<g id="node6" class="node">
<title>[root] aws_iam_instance_profile.terraform_iam_instance_profile</title>
<polygon fill="none" stroke="#000000" points="1031.1099,-324 688.1978,-324 688.1978,-288 1031.1099,-288 1031.1099,-324"/>
<text text-anchor="middle" x="859.6538" y="-301.8" font-family="Times,serif" font-size="14.00" fill="#000000">aws_iam_instance_profile.terraform_iam_instance_profile</text>
</g>
<!-- [root] aws_iam_instance_profile.terraform_iam_instance_profile&#45;&gt;[root] aws_iam_role.terraform_new_role -->
<g id="edge11" class="edge">
<title>[root] aws_iam_instance_profile.terraform_iam_instance_profile&#45;&gt;[root] aws_iam_role.terraform_new_role</title>
<path fill="none" stroke="#000000" d="M688.1682,-288.9214C684.9709,-288.611 681.797,-288.3036 678.6538,-288 511.2821,-271.8322 466.4259,-273.3136 295.9726,-252.1258"/>
<polygon fill="#000000" stroke="#000000" points="296.2591,-248.6344 285.902,-250.8659 295.3901,-255.5803 296.2591,-248.6344"/>
</g>
<!-- [root] aws_iam_instance_profile.terraform_new_ingest -->
<g id="node7" class="node">
<title>[root] aws_iam_instance_profile.terraform_new_ingest</title>
<polygon fill="none" stroke="#000000" points="289.4616,-396 -.154,-396 -.154,-360 289.4616,-360 289.4616,-396"/>
<text text-anchor="middle" x="144.6538" y="-373.8" font-family="Times,serif" font-size="14.00" fill="#000000">aws_iam_instance_profile.terraform_new_ingest</text>
</g>
<!-- [root] aws_iam_instance_profile.terraform_new_ingest&#45;&gt;[root] aws_iam_role.terraform_new_role -->
<g id="edge12" class="edge">
<title>[root] aws_iam_instance_profile.terraform_new_ingest&#45;&gt;[root] aws_iam_role.terraform_new_role</title>
<path fill="none" stroke="#000000" d="M149.2132,-359.7623C155.3806,-335.0928 166.4389,-290.8598 173.6605,-261.9731"/>
<polygon fill="#000000" stroke="#000000" points="177.1015,-262.6399 176.1314,-252.0896 170.3105,-260.9421 177.1015,-262.6399"/>
</g>
<!-- [root] aws_iam_role.terraform_new_role&#45;&gt;[root] provider.aws -->
<g id="edge13" class="edge">
<title>[root] aws_iam_role.terraform_new_role&#45;&gt;[root] provider.aws</title>
<path fill="none" stroke="#000000" d="M285.9032,-217.1436C288.8502,-216.7481 291.7716,-216.3659 294.6538,-216 766.9272,-156.0416 1338.3039,-110.1634 1534.007,-95.2077"/>
<polygon fill="#000000" stroke="#000000" points="1534.4434,-98.6847 1544.1484,-94.4347 1533.9113,-91.7049 1534.4434,-98.6847"/>
</g>
<!-- [root] aws_iam_role_policy.terraform_new_ecs_policy -->
<g id="node9" class="node">
<title>[root] aws_iam_role_policy.terraform_new_ecs_policy</title>
<polygon fill="none" stroke="#000000" points="988.3179,-468 698.9897,-468 698.9897,-432 988.3179,-432 988.3179,-468"/>
<text text-anchor="middle" x="843.6538" y="-445.8" font-family="Times,serif" font-size="14.00" fill="#000000">aws_iam_role_policy.terraform_new_ecs_policy</text>
</g>
<!-- [root] aws_iam_role_policy.terraform_new_ecs_policy&#45;&gt;[root] aws_iam_role.terraform_new_role -->
<g id="edge14" class="edge">
<title>[root] aws_iam_role_policy.terraform_new_ecs_policy&#45;&gt;[root] aws_iam_role.terraform_new_role</title>
<path fill="none" stroke="#000000" d="M734.0778,-431.9442C629.4809,-412.5923 468.7102,-377.2713 336.6538,-324 292.7116,-306.2738 246.1287,-277.9967 215.4295,-257.8716"/>
<polygon fill="#000000" stroke="#000000" points="217.0899,-254.7733 206.8204,-252.1681 213.2239,-260.6088 217.0899,-254.7733"/>
</g>
<!-- [root] aws_internet_gateway.terraform_new_internet_gw -->
<g id="node10" class="node">
<title>[root] aws_internet_gateway.terraform_new_internet_gw</title>
<polygon fill="none" stroke="#000000" points="2723.9664,-252 2423.3413,-252 2423.3413,-216 2723.9664,-216 2723.9664,-252"/>
<text text-anchor="middle" x="2573.6538" y="-229.8" font-family="Times,serif" font-size="14.00" fill="#000000">aws_internet_gateway.terraform_new_internet_gw</text>
</g>
<!-- [root] aws_vpc.terraform_new_vpc -->
<g id="node18" class="node">
<title>[root] aws_vpc.terraform_new_vpc</title>
<polygon fill="none" stroke="#000000" points="2143.0337,-180 1964.2739,-180 1964.2739,-144 2143.0337,-144 2143.0337,-180"/>
<text text-anchor="middle" x="2053.6538" y="-157.8" font-family="Times,serif" font-size="14.00" fill="#000000">aws_vpc.terraform_new_vpc</text>
</g>
<!-- [root] aws_internet_gateway.terraform_new_internet_gw&#45;&gt;[root] aws_vpc.terraform_new_vpc -->
<g id="edge15" class="edge">
<title>[root] aws_internet_gateway.terraform_new_internet_gw&#45;&gt;[root] aws_vpc.terraform_new_vpc</title>
<path fill="none" stroke="#000000" d="M2443.4423,-215.9707C2353.4843,-203.515 2235.6469,-187.199 2153.1801,-175.7806"/>
<polygon fill="#000000" stroke="#000000" points="2153.436,-172.2827 2143.0505,-174.378 2152.4759,-179.2165 2153.436,-172.2827"/>
</g>
<!-- [root] aws_key_pair.ssh_key -->
<g id="node11" class="node">
<title>[root] aws_key_pair.ssh_key</title>
<polygon fill="none" stroke="#000000" points="1422.2511,-324 1281.0566,-324 1281.0566,-288 1422.2511,-288 1422.2511,-324"/>
<text text-anchor="middle" x="1351.6538" y="-301.8" font-family="Times,serif" font-size="14.00" fill="#000000">aws_key_pair.ssh_key</text>
</g>
<!-- [root] aws_key_pair.ssh_key&#45;&gt;[root] provider.aws -->
<g id="edge16" class="edge">
<title>[root] aws_key_pair.ssh_key&#45;&gt;[root] provider.aws</title>
<path fill="none" stroke="#000000" d="M1422.4754,-288.1962C1470.1368,-275.6908 1525.8408,-259.848 1534.6538,-252 1574.5848,-216.4415 1592.1611,-153.8505 1599.2896,-117.7644"/>
<polygon fill="#000000" stroke="#000000" points="1602.8152,-117.9433 1601.1796,-107.4755 1595.9304,-116.6785 1602.8152,-117.9433"/>
</g>
<!-- [root] var.ssh_key -->
<g id="node25" class="node">
<title>[root] var.ssh_key</title>
<ellipse fill="none" stroke="#000000" cx="1451.6538" cy="-234" rx="73.9344" ry="18"/>
<text text-anchor="middle" x="1451.6538" y="-229.8" font-family="Times,serif" font-size="14.00" fill="#000000">[root] var.ssh_key</text>
</g>
<!-- [root] aws_key_pair.ssh_key&#45;&gt;[root] var.ssh_key -->
<g id="edge17" class="edge">
<title>[root] aws_key_pair.ssh_key&#45;&gt;[root] var.ssh_key</title>
<path fill="none" stroke="#000000" d="M1376.888,-287.8314C1389.8251,-278.5167 1405.7215,-267.0712 1419.5253,-257.1325"/>
<polygon fill="#000000" stroke="#000000" points="1421.7343,-259.8549 1427.8046,-251.1715 1417.6441,-254.1742 1421.7343,-259.8549"/>
</g>
<!-- [root] aws_launch_configuration.terraform_ecs_instance&#45;&gt;[root] aws_iam_instance_profile.terraform_iam_instance_profile -->
<g id="edge18" class="edge">
<title>[root] aws_launch_configuration.terraform_ecs_instance&#45;&gt;[root] aws_iam_instance_profile.terraform_iam_instance_profile</title>
<path fill="none" stroke="#000000" d="M1081.3426,-359.9243C1039.4787,-349.7412 987.0539,-336.9892 943.6965,-326.4428"/>
<polygon fill="#000000" stroke="#000000" points="944.2828,-322.9834 933.7388,-324.0207 942.6283,-329.7851 944.2828,-322.9834"/>
</g>
<!-- [root] aws_launch_configuration.terraform_ecs_instance&#45;&gt;[root] aws_key_pair.ssh_key -->
<g id="edge19" class="edge">
<title>[root] aws_launch_configuration.terraform_ecs_instance&#45;&gt;[root] aws_key_pair.ssh_key</title>
<path fill="none" stroke="#000000" d="M1204.8599,-359.9243C1231.5377,-350.1243 1264.6924,-337.945 1292.7391,-327.6422"/>
<polygon fill="#000000" stroke="#000000" points="1294.2477,-330.8167 1302.4275,-324.0831 1291.8339,-324.246 1294.2477,-330.8167"/>
</g>
<!-- [root] aws_launch_configuration.terraform_ecs_instance&#45;&gt;[root] aws_security_group.terraform_new_security_group -->
<g id="edge20" class="edge">
<title>[root] aws_launch_configuration.terraform_ecs_instance&#45;&gt;[root] aws_security_group.terraform_new_security_group</title>
<path fill="none" stroke="#000000" d="M1304.7494,-366.0928C1465.3301,-352.9912 1703.5896,-332.6456 1745.6538,-324 1824.6178,-307.7702 1912.6603,-276.8499 1967.8487,-255.831"/>
<polygon fill="#000000" stroke="#000000" points="1969.3421,-259.0069 1977.4251,-252.1574 1966.8349,-252.4713 1969.3421,-259.0069"/>
</g>
<!-- [root] data.template_file.ecs -->
<g id="node22" class="node">
<title>[root] data.template_file.ecs</title>
<polygon fill="none" stroke="#000000" points="1224.4373,-324 1086.8703,-324 1086.8703,-288 1224.4373,-288 1224.4373,-324"/>
<text text-anchor="middle" x="1155.6538" y="-301.8" font-family="Times,serif" font-size="14.00" fill="#000000">data.template_file.ecs</text>
</g>
<!-- [root] aws_launch_configuration.terraform_ecs_instance&#45;&gt;[root] data.template_file.ecs -->
<g id="edge21" class="edge">
<title>[root] aws_launch_configuration.terraform_ecs_instance&#45;&gt;[root] data.template_file.ecs</title>
<path fill="none" stroke="#000000" d="M1155.6538,-359.8314C1155.6538,-352.131 1155.6538,-342.9743 1155.6538,-334.4166"/>
<polygon fill="#000000" stroke="#000000" points="1159.1539,-334.4132 1155.6538,-324.4133 1152.1539,-334.4133 1159.1539,-334.4132"/>
</g>
<!-- [root] var.ami -->
<g id="node26" class="node">
<title>[root] var.ami</title>
<ellipse fill="none" stroke="#000000" cx="404.6538" cy="-306" rx="58.9668" ry="18"/>
<text text-anchor="middle" x="404.6538" y="-301.8" font-family="Times,serif" font-size="14.00" fill="#000000">[root] var.ami</text>
</g>
<!-- [root] aws_launch_configuration.terraform_ecs_instance&#45;&gt;[root] var.ami -->
<g id="edge22" class="edge">
<title>[root] aws_launch_configuration.terraform_ecs_instance&#45;&gt;[root] var.ami</title>
<path fill="none" stroke="#000000" d="M1006.4805,-373.9236C867.4712,-368.3051 654.839,-355.0548 472.6538,-324 467.592,-323.1372 462.3585,-322.0722 457.1463,-320.8948"/>
<polygon fill="#000000" stroke="#000000" points="457.7399,-317.4381 447.2,-318.5154 456.1113,-324.246 457.7399,-317.4381"/>
</g>
<!-- [root] var.instance_type -->
<g id="node27" class="node">
<title>[root] var.instance_type</title>
<ellipse fill="none" stroke="#000000" cx="575.6538" cy="-306" rx="94.1878" ry="18"/>
<text text-anchor="middle" x="575.6538" y="-301.8" font-family="Times,serif" font-size="14.00" fill="#000000">[root] var.instance_type</text>
</g>
<!-- [root] aws_launch_configuration.terraform_ecs_instance&#45;&gt;[root] var.instance_type -->
<g id="edge23" class="edge">
<title>[root] aws_launch_configuration.terraform_ecs_instance&#45;&gt;[root] var.instance_type</title>
<path fill="none" stroke="#000000" d="M1006.629,-363.3528C912.6534,-353.5576 788.8438,-339.6291 679.6538,-324 671.375,-322.815 662.7425,-321.4804 654.1456,-320.0872"/>
<polygon fill="#000000" stroke="#000000" points="654.5293,-316.6033 644.0932,-318.4303 653.3908,-323.5101 654.5293,-316.6033"/>
</g>
<!-- [root] aws_route53_record.terraform_new_route53 -->
<g id="node13" class="node">
<title>[root] aws_route53_record.terraform_new_route53</title>
<polygon fill="none" stroke="#000000" points="2734.8893,-396 2468.4183,-396 2468.4183,-360 2734.8893,-360 2734.8893,-396"/>
<text text-anchor="middle" x="2601.6538" y="-373.8" font-family="Times,serif" font-size="14.00" fill="#000000">aws_route53_record.terraform_new_route53</text>
</g>
<!-- [root] aws_route53_record.terraform_new_route53&#45;&gt;[root] aws_elb.terraform_elb_ecs -->
<g id="edge24" class="edge">
<title>[root] aws_route53_record.terraform_new_route53&#45;&gt;[root] aws_elb.terraform_elb_ecs</title>
<path fill="none" stroke="#000000" d="M2468.0925,-361.3913C2360.468,-348.008 2211.8598,-329.5282 2116.4952,-317.6694"/>
<polygon fill="#000000" stroke="#000000" points="2116.6428,-314.1609 2106.2873,-316.4 2115.779,-321.1074 2116.6428,-314.1609"/>
</g>
<!-- [root] data.aws_route53_zone.core_zalora_io -->
<g id="node21" class="node">
<title>[root] data.aws_route53_zone.core_zalora_io</title>
<polygon fill="none" stroke="#000000" points="2934.1103,-324 2699.1973,-324 2699.1973,-288 2934.1103,-288 2934.1103,-324"/>
<text text-anchor="middle" x="2816.6538" y="-301.8" font-family="Times,serif" font-size="14.00" fill="#000000">data.aws_route53_zone.core_zalora_io</text>
</g>
<!-- [root] aws_route53_record.terraform_new_route53&#45;&gt;[root] data.aws_route53_zone.core_zalora_io -->
<g id="edge25" class="edge">
<title>[root] aws_route53_record.terraform_new_route53&#45;&gt;[root] data.aws_route53_zone.core_zalora_io</title>
<path fill="none" stroke="#000000" d="M2655.6299,-359.9243C2685.1494,-350.0387 2721.8983,-337.7321 2752.8327,-327.3726"/>
<polygon fill="#000000" stroke="#000000" points="2754.2846,-330.5776 2762.6555,-324.0831 2752.0617,-323.9399 2754.2846,-330.5776"/>
</g>
<!-- [root] var.domain -->
<g id="node28" class="node">
<title>[root] var.domain</title>
<ellipse fill="none" stroke="#000000" cx="2609.6538" cy="-306" rx="71.9963" ry="18"/>
<text text-anchor="middle" x="2609.6538" y="-301.8" font-family="Times,serif" font-size="14.00" fill="#000000">[root] var.domain</text>
</g>
<!-- [root] aws_route53_record.terraform_new_route53&#45;&gt;[root] var.domain -->
<g id="edge26" class="edge">
<title>[root] aws_route53_record.terraform_new_route53&#45;&gt;[root] var.domain</title>
<path fill="none" stroke="#000000" d="M2603.6725,-359.8314C2604.5281,-352.131 2605.5455,-342.9743 2606.4964,-334.4166"/>
<polygon fill="#000000" stroke="#000000" points="2609.9821,-334.7386 2607.6079,-324.4133 2603.0249,-333.9656 2609.9821,-334.7386"/>
</g>
<!-- [root] aws_route_table.terraform_new_routetable -->
<g id="node14" class="node">
<title>[root] aws_route_table.terraform_new_routetable</title>
<polygon fill="none" stroke="#000000" points="2519.5516,-324 2261.756,-324 2261.756,-288 2519.5516,-288 2519.5516,-324"/>
<text text-anchor="middle" x="2390.6538" y="-301.8" font-family="Times,serif" font-size="14.00" fill="#000000">aws_route_table.terraform_new_routetable</text>
</g>
<!-- [root] aws_route_table.terraform_new_routetable&#45;&gt;[root] aws_internet_gateway.terraform_new_internet_gw -->
<g id="edge27" class="edge">
<title>[root] aws_route_table.terraform_new_routetable&#45;&gt;[root] aws_internet_gateway.terraform_new_internet_gw</title>
<path fill="none" stroke="#000000" d="M2436.8324,-287.8314C2461.6339,-278.0734 2492.3788,-265.977 2518.4381,-255.7242"/>
<polygon fill="#000000" stroke="#000000" points="2519.783,-258.9563 2527.8072,-252.038 2517.2201,-252.4423 2519.783,-258.9563"/>
</g>
<!-- [root] aws_route_table_association.terraform_new_route_tableassociate -->
<g id="node15" class="node">
<title>[root] aws_route_table_association.terraform_new_route_tableassociate</title>
<polygon fill="none" stroke="#000000" points="2434.7896,-396 2050.518,-396 2050.518,-360 2434.7896,-360 2434.7896,-396"/>
<text text-anchor="middle" x="2242.6538" y="-373.8" font-family="Times,serif" font-size="14.00" fill="#000000">aws_route_table_association.terraform_new_route_tableassociate</text>
</g>
<!-- [root] aws_route_table_association.terraform_new_route_tableassociate&#45;&gt;[root] aws_route_table.terraform_new_routetable -->
<g id="edge28" class="edge">
<title>[root] aws_route_table_association.terraform_new_route_tableassociate&#45;&gt;[root] aws_route_table.terraform_new_routetable</title>
<path fill="none" stroke="#000000" d="M2280.0005,-359.8314C2299.5307,-350.3302 2323.6179,-338.6121 2344.3269,-328.5374"/>
<polygon fill="#000000" stroke="#000000" points="2346.1145,-331.56 2353.5757,-324.038 2343.0522,-325.2654 2346.1145,-331.56"/>
</g>
<!-- [root] aws_route_table_association.terraform_new_route_tableassociate&#45;&gt;[root] aws_subnet.terraform_new_subnet -->
<g id="edge29" class="edge">
<title>[root] aws_route_table_association.terraform_new_route_tableassociate&#45;&gt;[root] aws_subnet.terraform_new_subnet</title>
<path fill="none" stroke="#000000" d="M2241.5699,-359.9415C2241.1352,-341.1681 2242.4219,-311.3225 2252.6538,-288 2257.1189,-277.8224 2264.1992,-268.1663 2271.523,-259.9091"/>
<polygon fill="#000000" stroke="#000000" points="2274.2382,-262.131 2278.542,-252.4496 2269.1402,-257.334 2274.2382,-262.131"/>
</g>
<!-- [root] aws_security_group.terraform_new_security_group&#45;&gt;[root] aws_vpc.terraform_new_vpc -->
<g id="edge30" class="edge">
<title>[root] aws_security_group.terraform_new_security_group&#45;&gt;[root] aws_vpc.terraform_new_vpc</title>
<path fill="none" stroke="#000000" d="M2030.4764,-215.8314C2033.8647,-207.9617 2037.9079,-198.5712 2041.6614,-189.8533"/>
<polygon fill="#000000" stroke="#000000" points="2044.9859,-190.9822 2045.7259,-180.4133 2038.5565,-188.214 2044.9859,-190.9822"/>
</g>
<!-- [root] aws_subnet.terraform_new_subnet&#45;&gt;[root] aws_vpc.terraform_new_vpc -->
<g id="edge31" class="edge">
<title>[root] aws_subnet.terraform_new_subnet&#45;&gt;[root] aws_vpc.terraform_new_vpc</title>
<path fill="none" stroke="#000000" d="M2237.8952,-215.9243C2203.6807,-205.9103 2160.9783,-193.412 2125.3014,-182.97"/>
<polygon fill="#000000" stroke="#000000" points="2126.0184,-179.5331 2115.4379,-180.0831 2124.0521,-186.2513 2126.0184,-179.5331"/>
</g>
<!-- [root] var.availability_zone -->
<g id="node29" class="node">
<title>[root] var.availability_zone</title>
<ellipse fill="none" stroke="#000000" cx="2299.6538" cy="-162" rx="106.2405" ry="18"/>
<text text-anchor="middle" x="2299.6538" y="-157.8" font-family="Times,serif" font-size="14.00" fill="#000000">[root] var.availability_zone</text>
</g>
<!-- [root] aws_subnet.terraform_new_subnet&#45;&gt;[root] var.availability_zone -->
<g id="edge32" class="edge">
<title>[root] aws_subnet.terraform_new_subnet&#45;&gt;[root] var.availability_zone</title>
<path fill="none" stroke="#000000" d="M2299.6538,-215.8314C2299.6538,-208.131 2299.6538,-198.9743 2299.6538,-190.4166"/>
<polygon fill="#000000" stroke="#000000" points="2303.1539,-190.4132 2299.6538,-180.4133 2296.1539,-190.4133 2303.1539,-190.4132"/>
</g>
<!-- [root] aws_vpc.terraform_new_vpc&#45;&gt;[root] provider.aws -->
<g id="edge33" class="edge">
<title>[root] aws_vpc.terraform_new_vpc&#45;&gt;[root] provider.aws</title>
<path fill="none" stroke="#000000" d="M1964.2103,-147.689C1873.6938,-133.2064 1736.5129,-111.2574 1660.1016,-99.0316"/>
<polygon fill="#000000" stroke="#000000" points="1660.6141,-95.5692 1650.1867,-97.4453 1659.5081,-102.4813 1660.6141,-95.5692"/>
</g>
<!-- [root] data.aws_ecs_container_definition.terraform_new_ecs_container -->
<g id="node19" class="node">
<title>[root] data.aws_ecs_container_definition.terraform_new_ecs_container</title>
<polygon fill="none" stroke="#000000" points="1942.5103,-468 1562.7973,-468 1562.7973,-432 1942.5103,-432 1942.5103,-468"/>
<text text-anchor="middle" x="1752.6538" y="-445.8" font-family="Times,serif" font-size="14.00" fill="#000000">data.aws_ecs_container_definition.terraform_new_ecs_container</text>
</g>
<!-- [root] data.aws_ecs_container_definition.terraform_new_ecs_container&#45;&gt;[root] aws_ecs_task_definition.terraform_new_task -->
<g id="edge34" class="edge">
<title>[root] data.aws_ecs_container_definition.terraform_new_ecs_container&#45;&gt;[root] aws_ecs_task_definition.terraform_new_task</title>
<path fill="none" stroke="#000000" d="M1754.4801,-431.6123C1756.932,-401.1315 1759.5198,-338.492 1745.6538,-288 1743.115,-278.755 1738.7714,-269.3291 1734.2077,-260.9946"/>
<polygon fill="#000000" stroke="#000000" points="1737.0981,-259.0024 1729.0462,-252.1163 1731.0464,-262.5206 1737.0981,-259.0024"/>
</g>
<!-- [root] data.aws_ecs_task_definition.terraform_new_task&#45;&gt;[root] aws_ecs_task_definition.terraform_new_task -->
<g id="edge35" class="edge">
<title>[root] data.aws_ecs_task_definition.terraform_new_task&#45;&gt;[root] aws_ecs_task_definition.terraform_new_task</title>
<path fill="none" stroke="#000000" d="M1620.9536,-287.8314C1637.4772,-278.5368 1657.7724,-267.1208 1675.4145,-257.1971"/>
<polygon fill="#000000" stroke="#000000" points="1677.3645,-260.116 1684.3643,-252.1628 1673.9326,-254.015 1677.3645,-260.116"/>
</g>
<!-- [root] data.aws_route53_zone.core_zalora_io&#45;&gt;[root] provider.aws -->
<g id="edge36" class="edge">
<title>[root] data.aws_route53_zone.core_zalora_io&#45;&gt;[root] provider.aws</title>
<path fill="none" stroke="#000000" d="M2800.6782,-287.764C2778.7115,-262.8668 2740.9481,-220.7629 2732.6538,-216 2606.9886,-143.8378 2558.0527,-164.8774 2414.6538,-144 2151.4685,-105.683 1836.2186,-94.5164 1688.2259,-91.2914"/>
<polygon fill="#000000" stroke="#000000" points="1687.9341,-87.7846 1677.8624,-91.0727 1687.7863,-94.783 1687.9341,-87.7846"/>
</g>
<!-- [root] var.route53_zone -->
<g id="node30" class="node">
<title>[root] var.route53_zone</title>
<ellipse fill="none" stroke="#000000" cx="2873.6538" cy="-234" rx="93.7033" ry="18"/>
<text text-anchor="middle" x="2873.6538" y="-229.8" font-family="Times,serif" font-size="14.00" fill="#000000">[root] var.route53_zone</text>
</g>
<!-- [root] data.aws_route53_zone.core_zalora_io&#45;&gt;[root] var.route53_zone -->
<g id="edge37" class="edge">
<title>[root] data.aws_route53_zone.core_zalora_io&#45;&gt;[root] var.route53_zone</title>
<path fill="none" stroke="#000000" d="M2831.0373,-287.8314C2837.7034,-279.411 2845.748,-269.2495 2853.0437,-260.0338"/>
<polygon fill="#000000" stroke="#000000" points="2856.0095,-261.9264 2859.4724,-251.9134 2850.5211,-257.5814 2856.0095,-261.9264"/>
</g>
<!-- [root] data.template_file.ecs&#45;&gt;[root] aws_ecs_cluster.terraform_new_cluster -->
<g id="edge38" class="edge">
<title>[root] data.template_file.ecs&#45;&gt;[root] aws_ecs_cluster.terraform_new_cluster</title>
<path fill="none" stroke="#000000" d="M1177.1029,-287.8314C1187.4716,-279.0485 1200.0767,-268.3712 1211.3184,-258.8489"/>
<polygon fill="#000000" stroke="#000000" points="1213.8433,-261.297 1219.2116,-252.1628 1209.3189,-255.9556 1213.8433,-261.297"/>
</g>
<!-- [root] provider.template -->
<g id="node24" class="node">
<title>[root] provider.template</title>
<polygon fill="none" stroke="#000000" points="405.6538,-252 303.3281,-234 405.6538,-216 507.9795,-234 405.6538,-252"/>
<text text-anchor="middle" x="405.6538" y="-229.8" font-family="Times,serif" font-size="14.00" fill="#000000">provider.template</text>
</g>
<!-- [root] data.template_file.ecs&#45;&gt;[root] provider.template -->
<g id="edge39" class="edge">
<title>[root] data.template_file.ecs&#45;&gt;[root] provider.template</title>
<path fill="none" stroke="#000000" d="M1086.9529,-290.2762C1082.1279,-289.4262 1077.3265,-288.6542 1072.6538,-288 827.4174,-253.6636 762.7111,-279.8512 516.6538,-252 500.1073,-250.1271 482.2643,-247.504 465.8257,-244.8385"/>
<polygon fill="#000000" stroke="#000000" points="466.2331,-241.3584 455.796,-243.1797 465.0908,-248.2646 466.2331,-241.3584"/>
</g>
<!-- [root] var.docker_auth -->
<g id="node31" class="node">
<title>[root] var.docker_auth</title>
<ellipse fill="none" stroke="#000000" cx="614.6538" cy="-234" rx="89.3601" ry="18"/>
<text text-anchor="middle" x="614.6538" y="-229.8" font-family="Times,serif" font-size="14.00" fill="#000000">[root] var.docker_auth</text>
</g>
<!-- [root] data.template_file.ecs&#45;&gt;[root] var.docker_auth -->
<g id="edge40" class="edge">
<title>[root] data.template_file.ecs&#45;&gt;[root] var.docker_auth</title>
<path fill="none" stroke="#000000" d="M1086.9249,-290.4638C1082.1066,-289.5691 1077.3144,-288.7359 1072.6538,-288 913.8238,-262.9195 871.8638,-274.5431 712.6538,-252 704.9464,-250.9087 696.9205,-249.6448 688.9262,-248.3029"/>
<polygon fill="#000000" stroke="#000000" points="689.2921,-244.8145 678.8434,-246.5683 688.1053,-251.7131 689.2921,-244.8145"/>
</g>
<!-- [root] var.docker_email -->
<g id="node32" class="node">
<title>[root] var.docker_email</title>
<ellipse fill="none" stroke="#000000" cx="815.6538" cy="-234" rx="93.6946" ry="18"/>
<text text-anchor="middle" x="815.6538" y="-229.8" font-family="Times,serif" font-size="14.00" fill="#000000">[root] var.docker_email</text>
</g>
<!-- [root] data.template_file.ecs&#45;&gt;[root] var.docker_email -->
<g id="edge41" class="edge">
<title>[root] data.template_file.ecs&#45;&gt;[root] var.docker_email</title>
<path fill="none" stroke="#000000" d="M1086.8187,-291.0361C1082.0257,-290.0052 1077.2681,-288.9851 1072.6538,-288 1010.8931,-274.8147 940.7266,-260.0887 889.332,-249.3494"/>
<polygon fill="#000000" stroke="#000000" points="889.8158,-245.875 879.3114,-247.2563 888.3845,-252.7271 889.8158,-245.875"/>
</g>
<!-- [root] var.docker_host -->
<g id="node33" class="node">
<title>[root] var.docker_host</title>
<ellipse fill="none" stroke="#000000" cx="1015.6538" cy="-234" rx="88.8929" ry="18"/>
<text text-anchor="middle" x="1015.6538" y="-229.8" font-family="Times,serif" font-size="14.00" fill="#000000">[root] var.docker_host</text>
</g>
<!-- [root] data.template_file.ecs&#45;&gt;[root] var.docker_host -->
<g id="edge42" class="edge">
<title>[root] data.template_file.ecs&#45;&gt;[root] var.docker_host</title>
<path fill="none" stroke="#000000" d="M1120.3259,-287.8314C1101.2192,-278.005 1077.5017,-265.8075 1057.4769,-255.509"/>
<polygon fill="#000000" stroke="#000000" points="1059.0597,-252.3873 1048.566,-250.9263 1055.8582,-258.6123 1059.0597,-252.3873"/>
</g>
<!-- [root] var.access_key -->
<g id="node36" class="node">
<title>[root] var.access_key</title>
<ellipse fill="none" stroke="#000000" cx="1432.6538" cy="-18" rx="85.4928" ry="18"/>
<text text-anchor="middle" x="1432.6538" y="-13.8" font-family="Times,serif" font-size="14.00" fill="#000000">[root] var.access_key</text>
</g>
<!-- [root] provider.aws&#45;&gt;[root] var.access_key -->
<g id="edge45" class="edge">
<title>[root] provider.aws&#45;&gt;[root] var.access_key</title>
<path fill="none" stroke="#000000" d="M1575.7991,-78.2717C1549.9835,-67.402 1511.044,-51.0064 1480.2925,-38.0584"/>
<polygon fill="#000000" stroke="#000000" points="1481.61,-34.8156 1471.0354,-34.1607 1478.8935,-41.267 1481.61,-34.8156"/>
</g>
<!-- [root] var.region -->
<g id="node37" class="node">
<title>[root] var.region</title>
<ellipse fill="none" stroke="#000000" cx="1603.6538" cy="-18" rx="68.1287" ry="18"/>
<text text-anchor="middle" x="1603.6538" y="-13.8" font-family="Times,serif" font-size="14.00" fill="#000000">[root] var.region</text>
</g>
<!-- [root] provider.aws&#45;&gt;[root] var.region -->
<g id="edge46" class="edge">
<title>[root] provider.aws&#45;&gt;[root] var.region</title>
<path fill="none" stroke="#000000" d="M1603.6538,-71.8314C1603.6538,-64.131 1603.6538,-54.9743 1603.6538,-46.4166"/>
<polygon fill="#000000" stroke="#000000" points="1607.1539,-46.4132 1603.6538,-36.4133 1600.1539,-46.4133 1607.1539,-46.4132"/>
</g>
<!-- [root] var.secret_key -->
<g id="node38" class="node">
<title>[root] var.secret_key</title>
<ellipse fill="none" stroke="#000000" cx="1772.6538" cy="-18" rx="83.0632" ry="18"/>
<text text-anchor="middle" x="1772.6538" y="-13.8" font-family="Times,serif" font-size="14.00" fill="#000000">[root] var.secret_key</text>
</g>
<!-- [root] provider.aws&#45;&gt;[root] var.secret_key -->
<g id="edge47" class="edge">
<title>[root] provider.aws&#45;&gt;[root] var.secret_key</title>
<path fill="none" stroke="#000000" d="M1631.1827,-78.2717C1656.5864,-67.4488 1694.849,-51.1476 1725.1789,-38.226"/>
<polygon fill="#000000" stroke="#000000" points="1726.8931,-41.3002 1734.7212,-34.1607 1724.1494,-34.8602 1726.8931,-41.3002"/>
</g>
<!-- [root] output.address -->
<g id="node34" class="node">
<title>[root] output.address</title>
<ellipse fill="none" stroke="#000000" cx="2416.6538" cy="-450" rx="83.5736" ry="18"/>
<text text-anchor="middle" x="2416.6538" y="-445.8" font-family="Times,serif" font-size="14.00" fill="#000000">[root] output.address</text>
</g>
<!-- [root] output.address&#45;&gt;[root] aws_route53_record.terraform_new_route53 -->
<g id="edge43" class="edge">
<title>[root] output.address&#45;&gt;[root] aws_route53_record.terraform_new_route53</title>
<path fill="none" stroke="#000000" d="M2457.2528,-434.1993C2483.2453,-424.0833 2517.3216,-410.8212 2545.8438,-399.7207"/>
<polygon fill="#000000" stroke="#000000" points="2547.2342,-402.9353 2555.2838,-396.0467 2544.6953,-396.412 2547.2342,-402.9353"/>
</g>
<!-- [root] output.elb_dns -->
<g id="node35" class="node">
<title>[root] output.elb_dns</title>
<ellipse fill="none" stroke="#000000" cx="2045.6538" cy="-450" rx="84.5514" ry="18"/>
<text text-anchor="middle" x="2045.6538" y="-445.8" font-family="Times,serif" font-size="14.00" fill="#000000">[root] output.elb_dns</text>
</g>
<!-- [root] output.elb_dns&#45;&gt;[root] aws_elb.terraform_elb_ecs -->
<g id="edge44" class="edge">
<title>[root] output.elb_dns&#45;&gt;[root] aws_elb.terraform_elb_ecs</title>
<path fill="none" stroke="#000000" d="M2042.7408,-431.7623C2038.8006,-407.0928 2031.7356,-362.8598 2027.1217,-333.9731"/>
<polygon fill="#000000" stroke="#000000" points="2030.5766,-333.4124 2025.5431,-324.0896 2023.6642,-334.5165 2030.5766,-333.4124"/>
</g>
<!-- [root] root -->
<g id="node39" class="node">
<title>[root] root</title>
<ellipse fill="none" stroke="#000000" cx="1643.6538" cy="-522" rx="46.8976" ry="18"/>
<text text-anchor="middle" x="1643.6538" y="-517.8" font-family="Times,serif" font-size="14.00" fill="#000000">[root] root</text>
</g>
<!-- [root] root&#45;&gt;[root] aws_autoscaling_group.terraform_esc_cluster_instances -->
<g id="edge48" class="edge">
<title>[root] root&#45;&gt;[root] aws_autoscaling_group.terraform_esc_cluster_instances</title>
<path fill="none" stroke="#000000" d="M1603.7303,-512.5132C1558.8408,-501.8464 1484.6251,-484.211 1426.4451,-470.3861"/>
<polygon fill="#000000" stroke="#000000" points="1427.0558,-466.9338 1416.5175,-468.027 1425.4375,-473.7441 1427.0558,-466.9338"/>
</g>
<!-- [root] root&#45;&gt;[root] aws_ecs_service.terraform_new_ecs_service -->
<g id="edge49" class="edge">
<title>[root] root&#45;&gt;[root] aws_ecs_service.terraform_new_ecs_service</title>
<path fill="none" stroke="#000000" d="M1609.254,-509.4493C1590.043,-500.704 1567.2966,-487.1417 1553.6538,-468 1540.8878,-450.0885 1536.3587,-425.3983 1534.8986,-406.4084"/>
<polygon fill="#000000" stroke="#000000" points="1538.3848,-406.0544 1534.3622,-396.2529 1531.3946,-406.4236 1538.3848,-406.0544"/>
</g>
<!-- [root] root&#45;&gt;[root] aws_iam_instance_profile.terraform_new_ingest -->
<g id="edge50" class="edge">
<title>[root] root&#45;&gt;[root] aws_iam_instance_profile.terraform_new_ingest</title>
<path fill="none" stroke="#000000" d="M1596.8498,-521.1251C1458.0506,-518.1498 1036.7381,-506.3698 689.6538,-468 533.6728,-450.7564 354.4144,-418.7832 245.3725,-397.9573"/>
<polygon fill="#000000" stroke="#000000" points="245.8483,-394.4848 235.3683,-396.0402 244.5308,-401.3598 245.8483,-394.4848"/>
</g>
<!-- [root] root&#45;&gt;[root] aws_iam_role_policy.terraform_new_ecs_policy -->
<g id="edge51" class="edge">
<title>[root] root&#45;&gt;[root] aws_iam_role_policy.terraform_new_ecs_policy</title>
<path fill="none" stroke="#000000" d="M1598.06,-517.8966C1484.371,-507.6646 1184.1492,-480.6446 998.5331,-463.9391"/>
<polygon fill="#000000" stroke="#000000" points="998.6795,-460.4383 988.406,-463.0277 998.052,-467.4101 998.6795,-460.4383"/>
</g>
<!-- [root] root&#45;&gt;[root] aws_route_table_association.terraform_new_route_tableassociate -->
<g id="edge52" class="edge">
<title>[root] root&#45;&gt;[root] aws_route_table_association.terraform_new_route_tableassociate</title>
<path fill="none" stroke="#000000" d="M1690.2552,-520.4806C1797.6833,-516.4118 2059.6329,-503.0933 2139.6538,-468 2172.4361,-453.6232 2202.3246,-424.972 2221.3607,-403.8418"/>
<polygon fill="#000000" stroke="#000000" points="2224.1403,-405.9808 2228.1085,-396.1572 2218.8803,-401.3621 2224.1403,-405.9808"/>
</g>
<!-- [root] root&#45;&gt;[root] data.aws_ecs_container_definition.terraform_new_ecs_container -->
<g id="edge53" class="edge">
<title>[root] root&#45;&gt;[root] data.aws_ecs_container_definition.terraform_new_ecs_container</title>
<path fill="none" stroke="#000000" d="M1667.3052,-506.3771C1681.6748,-496.8852 1700.3107,-484.5753 1716.5009,-473.8808"/>
<polygon fill="#000000" stroke="#000000" points="1718.7864,-476.5658 1725.2013,-468.1338 1714.9282,-470.725 1718.7864,-476.5658"/>
</g>
<!-- [root] root&#45;&gt;[root] output.address -->
<g id="edge54" class="edge">
<title>[root] root&#45;&gt;[root] output.address</title>
<path fill="none" stroke="#000000" d="M1689.1226,-517.7649C1814.2545,-506.1096 2165.3049,-473.4115 2329.6902,-458.1001"/>
<polygon fill="#000000" stroke="#000000" points="2330.134,-461.574 2339.7662,-457.1616 2329.4847,-454.6042 2330.134,-461.574"/>
</g>
<!-- [root] root&#45;&gt;[root] output.elb_dns -->
<g id="edge55" class="edge">
<title>[root] root&#45;&gt;[root] output.elb_dns</title>
<path fill="none" stroke="#000000" d="M1686.5423,-514.6985C1746.0843,-504.5122 1857.1406,-485.3333 1951.6538,-468 1958.6202,-466.7224 1965.8727,-465.3712 1973.123,-464.0064"/>
<polygon fill="#000000" stroke="#000000" points="1973.8056,-467.4394 1982.9812,-462.1424 1972.505,-460.5613 1973.8056,-467.4394"/>
</g>
</g>
</svg>
